<svg xmlns="http://www.w3.org/2000/svg" xmlns:xlink="http://www.w3.org/1999/xlink" preserveAspectRatio="xMidYMid" width="181" height="56" viewBox="0 0 181 56">
  <defs>
    <style>

      .cls-3 {
        fill: #000000;
        filter: url(#color-overlay-1);
      }

      .cls-4 {
        fill: #ffffff;
      }
    </style>

    <filter id="color-overlay-1" filterUnits="userSpaceOnUse">
      <feFlood flood-color="#ffffff" flood-opacity="1"/>
      <feComposite operator="in" in2="SourceGraphic"/>
      <feBlend mode="normal" in2="SourceGraphic" result="colorOverlay"/>
    </filter>
  </defs>
  <g id="logo">
    <path d="M52.529,55.128 C52.529,55.128 57.781,45.939 57.781,45.939 C57.781,45.939 63.033,55.128 63.033,55.128 C63.033,55.128 52.529,55.128 52.529,55.128 ZM45.960,45.172 C45.960,45.172 56.467,45.172 56.467,45.172 C56.467,45.172 51.214,54.359 51.214,54.359 C51.214,54.359 45.960,45.172 45.960,45.172 ZM51.214,34.451 C51.214,34.451 56.467,43.641 56.467,43.641 C56.467,43.641 45.960,43.641 45.960,43.641 C45.960,43.641 51.214,34.451 51.214,34.451 ZM39.394,33.686 C39.394,33.686 49.900,33.686 49.900,33.686 C49.900,33.686 44.646,42.874 44.646,42.874 C44.646,42.874 39.394,33.686 39.394,33.686 ZM44.646,22.967 C44.646,22.967 49.900,32.154 49.900,32.154 C49.900,32.154 39.394,32.154 39.394,32.154 C39.394,32.154 44.646,22.967 44.646,22.967 ZM32.824,22.202 C32.824,22.202 43.332,22.202 43.332,22.202 C43.332,22.202 38.078,31.390 38.078,31.390 C38.078,31.390 32.824,22.202 32.824,22.202 ZM38.078,11.480 C38.078,11.480 43.332,20.671 43.332,20.671 C43.332,20.671 32.824,20.671 32.824,20.671 C32.824,20.671 38.078,11.480 38.078,11.480 ZM26.257,10.713 C26.257,10.713 36.764,10.713 36.764,10.713 C36.764,10.713 31.510,19.905 31.510,19.905 C31.510,19.905 26.257,10.713 26.257,10.713 ZM31.510,-0.006 C31.510,-0.006 36.764,9.184 36.764,9.184 C36.764,9.184 26.257,9.184 26.257,9.184 C26.257,9.184 31.510,-0.006 31.510,-0.006 ZM19.689,20.671 C19.689,20.671 24.943,11.480 24.943,11.480 C24.943,11.480 30.196,20.671 30.196,20.671 C30.196,20.671 19.689,20.671 19.689,20.671 ZM13.121,32.154 C13.121,32.154 18.375,22.967 18.375,22.967 C18.375,22.967 23.628,32.154 23.628,32.154 C23.628,32.154 13.121,32.154 13.121,32.154 ZM6.553,43.641 C6.553,43.641 11.807,34.451 11.807,34.451 C11.807,34.451 17.060,43.641 17.060,43.641 C17.060,43.641 6.553,43.641 6.553,43.641 ZM-0.013,55.128 C-0.013,55.128 5.238,45.939 5.238,45.939 C5.238,45.939 10.492,55.128 10.492,55.128 C10.492,55.128 -0.013,55.128 -0.013,55.128 ZM17.060,45.172 C17.060,45.172 11.807,54.359 11.807,54.359 C11.807,54.359 6.553,45.172 6.553,45.172 C6.553,45.172 17.060,45.172 17.060,45.172 ZM23.628,33.686 C23.628,33.686 18.375,42.874 18.375,42.874 C18.375,42.874 13.121,33.686 13.121,33.686 C13.121,33.686 23.628,33.686 23.628,33.686 ZM30.196,22.202 C30.196,22.202 24.943,31.390 24.943,31.390 C24.943,31.390 19.689,22.202 19.689,22.202 C19.689,22.202 30.196,22.202 30.196,22.202 ZM36.764,55.128 C36.764,55.128 26.257,55.128 26.257,55.128 C26.257,55.128 31.510,45.939 31.510,45.939 C31.510,45.939 36.764,55.128 36.764,55.128 ZM43.332,45.172 C43.332,45.172 38.078,54.359 38.078,54.359 C38.078,54.359 32.824,45.172 32.824,45.172 C32.824,45.172 43.332,45.172 43.332,45.172 ZM49.900,55.128 C49.900,55.128 39.394,55.128 39.394,55.128 C39.394,55.128 44.646,45.939 44.646,45.939 C44.646,45.939 49.900,55.128 49.900,55.128 Z" id="path-1" class="cls-3" fill-rule="evenodd"/>
    <path d="M177.999,40.000 C177.999,40.000 177.999,30.106 177.999,30.106 C177.999,28.044 177.670,26.525 177.013,25.550 C176.355,24.576 175.381,24.088 174.089,24.088 C173.409,24.088 172.768,24.213 172.168,24.462 C171.567,24.712 171.012,25.063 170.502,25.516 C169.992,25.970 169.544,26.508 169.159,27.131 C168.773,27.755 168.479,28.440 168.275,29.188 C168.275,29.188 168.275,40.000 168.275,40.000 C168.275,40.000 165.963,40.000 165.963,40.000 C165.963,40.000 165.963,30.106 165.963,30.106 C165.963,27.998 165.645,26.468 165.011,25.516 C164.376,24.564 163.401,24.088 162.087,24.088 C160.749,24.088 159.559,24.553 158.517,25.482 C157.474,26.412 156.726,27.636 156.273,29.154 C156.273,29.154 156.273,40.000 156.273,40.000 C156.273,40.000 153.961,40.000 153.961,40.000 C153.961,40.000 153.961,22.286 153.961,22.286 C153.961,22.286 156.069,22.286 156.069,22.286 C156.069,22.286 156.069,26.298 156.069,26.298 C156.794,24.938 157.746,23.879 158.925,23.119 C160.103,22.360 161.407,21.980 162.835,21.980 C164.331,21.980 165.526,22.400 166.422,23.238 C167.317,24.077 167.867,25.176 168.071,26.536 C169.725,23.499 172.003,21.980 174.905,21.980 C175.902,21.980 176.746,22.162 177.438,22.524 C178.129,22.887 178.684,23.403 179.104,24.071 C179.523,24.740 179.829,25.545 180.022,26.485 C180.214,27.426 180.311,28.474 180.311,29.630 C180.311,29.630 180.311,40.000 180.311,40.000 C180.311,40.000 177.999,40.000 177.999,40.000 ZM148.980,37.620 C148.198,38.459 147.268,39.122 146.192,39.609 C145.115,40.096 143.931,40.340 142.639,40.340 C141.347,40.340 140.168,40.096 139.103,39.609 C138.037,39.122 137.114,38.459 136.332,37.620 C135.550,36.782 134.943,35.807 134.513,34.696 C134.082,33.586 133.867,32.418 133.867,31.194 C133.867,29.948 134.088,28.769 134.530,27.658 C134.972,26.548 135.584,25.573 136.366,24.734 C137.148,23.896 138.071,23.227 139.137,22.728 C140.202,22.230 141.369,21.980 142.639,21.980 C143.908,21.980 145.081,22.230 146.158,22.728 C147.234,23.227 148.164,23.896 148.946,24.734 C149.728,25.573 150.340,26.548 150.782,27.658 C151.224,28.769 151.445,29.948 151.445,31.194 C151.445,32.418 151.229,33.586 150.799,34.696 C150.368,35.807 149.762,36.782 148.980,37.620 ZM148.589,28.389 C148.249,27.517 147.784,26.757 147.195,26.111 C146.605,25.465 145.920,24.955 145.138,24.581 C144.356,24.207 143.523,24.020 142.639,24.020 C141.755,24.020 140.927,24.207 140.157,24.581 C139.386,24.955 138.706,25.471 138.117,26.128 C137.527,26.786 137.063,27.551 136.723,28.423 C136.383,29.296 136.213,30.231 136.213,31.228 C136.213,32.226 136.383,33.149 136.723,33.999 C137.063,34.849 137.522,35.597 138.100,36.243 C138.678,36.889 139.358,37.394 140.140,37.756 C140.922,38.119 141.755,38.300 142.639,38.300 C143.523,38.300 144.356,38.113 145.138,37.739 C145.920,37.365 146.605,36.855 147.195,36.209 C147.784,35.563 148.249,34.810 148.589,33.948 C148.929,33.087 149.099,32.158 149.099,31.160 C149.099,30.186 148.929,29.262 148.589,28.389 ZM130.909,40.000 C130.909,40.000 125.605,33.098 125.605,33.098 C125.605,33.098 125.333,32.622 125.333,32.622 C125.333,32.622 125.061,33.098 125.061,33.098 C125.061,33.098 119.757,40.000 119.757,40.000 C119.757,40.000 117.275,40.000 117.275,40.000 C117.275,40.000 124.041,31.194 124.041,31.194 C124.041,31.194 117.275,22.286 117.275,22.286 C117.275,22.286 119.757,22.286 119.757,22.286 C119.757,22.286 125.061,29.222 125.061,29.222 C125.061,29.222 125.333,29.732 125.333,29.732 C125.333,29.732 125.605,29.222 125.605,29.222 C125.605,29.222 130.909,22.286 130.909,22.286 C130.909,22.286 133.391,22.286 133.391,22.286 C133.391,22.286 126.625,31.194 126.625,31.194 C126.625,31.194 133.391,40.000 133.391,40.000 C133.391,40.000 130.909,40.000 130.909,40.000 ZM114.266,39.660 C113.937,39.366 113.762,38.958 113.739,38.436 C113.739,38.436 113.671,37.042 113.671,37.042 C112.855,38.108 111.829,38.924 110.594,39.490 C109.359,40.056 108.027,40.340 106.599,40.340 C105.760,40.340 104.984,40.198 104.270,39.915 C103.556,39.632 102.933,39.241 102.400,38.742 C101.867,38.244 101.454,37.660 101.159,36.991 C100.864,36.323 100.717,35.603 100.717,34.832 C100.717,34.062 100.898,33.348 101.261,32.690 C101.624,32.033 102.134,31.466 102.791,30.990 C103.448,30.514 104.230,30.146 105.137,29.885 C106.044,29.625 107.041,29.494 108.129,29.494 C109.036,29.494 109.954,29.574 110.883,29.732 C111.812,29.891 112.640,30.118 113.365,30.412 C113.365,30.412 113.365,28.814 113.365,28.814 C113.365,27.250 112.923,26.009 112.039,25.091 C111.155,24.173 109.931,23.714 108.367,23.714 C107.460,23.714 106.531,23.896 105.579,24.258 C104.627,24.621 103.664,25.142 102.689,25.822 C102.689,25.822 101.873,24.292 101.873,24.292 C104.162,22.751 106.384,21.980 108.537,21.980 C110.758,21.980 112.504,22.604 113.773,23.850 C115.042,25.097 115.677,26.820 115.677,29.018 C115.677,29.018 115.677,37.008 115.677,37.008 C115.677,37.643 115.960,37.960 116.527,37.960 C116.527,37.960 116.527,40.000 116.527,40.000 C116.142,40.068 115.847,40.102 115.643,40.102 C115.054,40.102 114.595,39.955 114.266,39.660 ZM113.365,31.874 C112.594,31.580 111.795,31.353 110.968,31.194 C110.141,31.036 109.296,30.956 108.435,30.956 C106.803,30.956 105.477,31.296 104.457,31.976 C103.437,32.656 102.927,33.552 102.927,34.662 C102.927,35.206 103.035,35.716 103.250,36.192 C103.465,36.668 103.760,37.082 104.134,37.433 C104.508,37.785 104.956,38.062 105.477,38.266 C105.998,38.470 106.554,38.572 107.143,38.572 C108.344,38.572 109.449,38.346 110.458,37.892 C111.467,37.439 112.232,36.838 112.753,36.090 C112.957,35.886 113.110,35.665 113.212,35.427 C113.314,35.189 113.365,34.968 113.365,34.764 C113.365,34.764 113.365,31.874 113.365,31.874 ZM88.240,40.000 C88.240,40.000 83.174,28.066 83.174,28.066 C83.174,28.066 78.074,40.000 78.074,40.000 C78.074,40.000 76.000,40.000 76.000,40.000 C76.000,40.000 65.800,15.860 65.800,15.860 C65.800,15.860 68.350,15.860 68.350,15.860 C68.350,15.860 77.122,37.246 77.122,37.246 C77.122,37.246 81.712,26.332 81.712,26.332 C81.712,26.332 77.496,16.030 77.496,16.030 C77.496,16.030 79.740,16.030 79.740,16.030 C79.740,16.030 83.140,24.598 83.140,24.598 C83.140,24.598 86.574,16.030 86.574,16.030 C86.574,16.030 88.852,16.030 88.852,16.030 C88.852,16.030 84.636,26.332 84.636,26.332 C84.636,26.332 89.260,37.246 89.260,37.246 C89.260,37.246 97.998,15.860 97.998,15.860 C97.998,15.860 100.582,15.860 100.582,15.860 C100.582,15.860 90.348,40.000 90.348,40.000 C90.348,40.000 88.240,40.000 88.240,40.000 Z" id="path-2" class="cls-4" fill-rule="evenodd"/>
  </g>
</svg>
